<?xml version="1.0" standalone="no"?>
<!DOCTYPE svg PUBLIC "-//W3C//DTD SVG 1.1//EN" "http://www.w3.org/Graphics/SVG/1.1/DTD/svg11.dtd" >
<!--
2013-9-30: Created.
-->
<svg>
<metadata>
Created by iconfont
</metadata>
<defs>

<font id="iconfont" horiz-adv-x="1024" >
  <font-face
    font-family="iconfont"
    font-weight="500"
    font-stretch="normal"
    units-per-em="1024"
    ascent="896"
    descent="-128"
  />
    <missing-glyph />
    
    <glyph glyph-name="home2" unicode="&#58903;" d="M805.695-77.009c-1.963 0-3.541 0.054-4.672 0.111L203.268-76.898c-40.042 0-63.091 16.865-75.375 31.013-26.919 31.003-24.757 73.037-23.543 84.7l0 359.53 64 0 0-363.913-0.302-1.883c-0.761-6.401-0.833-26.277 8.289-36.609 1.93-2.186 7.803-8.838 26.932-8.838l600.308 0 0.75-0.082c2.153-0.076 22.315-0.434 34.996 11.557 8.454 7.994 12.74 21.212 12.74 39.288L852.063 398.621l64 0 0-360.756c0-45.871-18.247-72.371-33.555-86.525C854.974-74.12 820.092-77.008 805.695-77.009zM136.349 368.312 38 368.312c-13.291 0-25.197 8.214-29.916 20.639-4.718 12.425-1.266 26.472 8.674 35.294l472.219 419.09c12.02 10.668 30.087 10.766 42.223 0.227l478.781-415.791c9.955-8.646 13.588-22.513 9.151-34.929s-16.035-20.84-29.216-21.219l-104.938-3.012c-0.313-0.01-0.624-0.014-0.936-0.014-17.247 0-31.471 13.729-31.97 31.082-0.507 17.666 13.403 32.398 31.069 32.905l22.931 0.658L510.448 776.821 122.266 432.312l14.083 0c17.673 0 32-14.327 32-32S154.022 368.312 136.349 368.312zM403-45.201c-14.912 0-27 12.088-27 27L376 207.645c0.002 4.866 1.234 24.9 20.021 43.995 22.8 23.173 61.458 34.923 114.901 34.923 52.638 0 90.876-11.911 113.652-35.403 19.225-19.828 20.464-40.706 20.426-46.244l0-222.25c0-14.912-12.088-27-27-27s-27 12.088-27 27L591 204.598c-0.179 1.167-1.308 6.104-8.017 11.541-7.569 6.134-26.997 16.424-72.062 16.424-52.272 0-70.848-13.145-76.408-18.795-2.73-2.775-3.876-5.136-4.357-6.627-0.073-0.225-0.123-0.411-0.157-0.549l0-224.793C430-33.113 417.912-45.201 403-45.201z"  horiz-adv-x="1024" />

    
    <glyph glyph-name="bangzhu" unicode="&#58902;" d="M514.37832031-37.875c-232.62539062 0-421.875 189.24960938-421.875 421.875s189.24960938 421.875 421.875 421.875c232.60605469 0 421.875-189.24960938 421.875-421.875s-189.26894531-421.875-421.875-421.875zM514.37832031 769.19121094c-212.4140625 0-385.21054688-172.79648438-385.21054687-385.19121094s172.79648438-385.21054688 385.19121093-385.21054688c212.39472656 0 385.19121094 172.81582031 385.19121094 385.21054688s-172.79648438 385.19121094-385.171875 385.19121094zM522.45107422 609.7417968699999c-97.35732422 0-151.70273438-60.15585938-152.37333985-155.44160156l42.28330079 0c-1.34208984 69.12949219 34.90048828 119.85117188 108.07646484 119.85117188 52.33183594 0 95.95722656-36.89472656 95.95722656-90.58798828 0-34.90048828-18.79277344-63.08964844-43.62539062-86.59951172-50.97041016-47.32646484-65.27548828-69.57070312-67.86386719-134.40585938l42.8203125 0c2.53125 58.77509766 1.20761719 57.60527344 52.56210938 108.92021485 34.22988281 32.21542969 58.39101562 64.45107422 58.39101562 114.1171875-0.01933594 77.8359375-61.76601563 124.14638672-136.22695312 124.14638672zM524.06210938 185.81455078c-21.17021484 0-38.35195312-17.18173828-38.35195313-38.33261719 0-21.17021484 17.18173828-38.35195312 38.35195312-38.35195312 21.17021484 0 38.35195312 17.18173828 38.35195313 38.35195312 0 21.15175781-17.18173828 38.33261719-38.35195313 38.33261719z"  horiz-adv-x="1027" />

    
    <glyph glyph-name="tongzhi2" unicode="&#58883;" d="M563.872 782.24c-14.016 6.592-30.56 4.416-42.464-5.472L291.872 585.728 108.928 586.464 108.768 586.464c-10.528 0-20.672-4.16-28.128-11.616-7.52-7.456-11.776-17.6-11.776-28.224l-0.832-319.264c0-10.624 4.16-20.8 11.648-28.288 7.456-7.552 17.632-11.744 28.256-11.744l185.12 0 228.384-190.336c7.296-6.08 16.416-9.216 25.536-9.216 5.76 0 11.52 1.248 16.928 3.776 14.016 6.56 22.976 20.64 22.976 36.128L586.88 746.112C586.88 761.568 577.92 775.648 563.872 782.24L563.872 782.24zM718.624 582.688c-19.68 9.312-43.072 0.832-52.64-18.752-9.536-19.648-1.28-43.424 18.24-53.248 2.528-1.312 62.304-32.384 62.304-120.864 0-94.528-55.904-125.856-57.76-126.88-19.712-9.856-27.712-33.856-17.856-53.568 7.04-14.016 21.088-22.08 35.776-22.08 5.984 0 12.096 1.344 17.792 4.192 4.16 2.112 101.856 52.672 101.856 198.336C826.336 530.368 723.008 580.608 718.624 582.688L718.624 582.688zM842.88 699.904c-18.4 11.808-42.816 6.432-54.848-11.936-11.968-18.368-6.72-43.072 11.584-55.168 4.32-2.848 106.56-72.512 106.56-245.92 0-173.792-98.08-243.52-101.984-246.176-18.368-12.256-23.296-36.992-11.072-55.36 7.68-11.52 20.352-17.76 33.248-17.76 7.584 0 15.296 2.208 22.112 6.72 5.6 3.712 137.504 94.144 137.504 312.608C985.984 605.792 848.736 696.16 842.88 699.904L842.88 699.904zM842.88 699.904"  horiz-adv-x="1024" />

    
    <glyph glyph-name="home" unicode="&#58910;" d="M938.550351 475.90313L544.85478 806.898683c-0.069585 0.058328-0.14224 0.11154-0.212848 0.170892-0.406253 0.339738-0.820692 0.666172-1.236154 0.99056-0.161682 0.12689-0.322341 0.254803-0.487094 0.378623-0.499373 0.379647-1.004887 0.74599-1.515516 1.105171-0.080841 0.057305-0.161682 0.11461-0.242524 0.170892-0.582261 0.404206-1.172709 0.793062-1.768273 1.170662-0.007163 0.00307-0.013303 0.007163-0.019443 0.011256-18.34788 11.58178-42.872436 10.219759-59.740616-4.069689L86.023724 475.90313c-20.579711-17.286712-22.661116-47.351448-4.685719-67.127863 17.975397-19.763113 49.254797-21.806655 69.822229-4.507664l33.921577 28.519544 0-279.198863c0-65.736167 55.638181-119.242801 124.005268-119.242801l73.90829 0c27.321252 0 49.471738 21.297049 49.471738 47.570435L432.467107 306.511161c0 13.265118 11.234879 24.078395 25.022906 24.078395l109.539812 0c13.814634 0 25.075095-10.813277 25.075095-24.078395l0-219.015156c0-3.255137 0.344854-6.499018 1.046842-9.702989l1.199315-5.579065c4.787026-22.049179 25.009603-37.867446 48.438199-37.867446l72.694649 0c68.38039 0 124.017548 53.506635 124.017548 119.242801l0 279.18863 33.909297-28.509311c9.383718-7.876388 21.00029-11.745509 32.555463-11.745509 13.762445 0 27.488051 5.502317 37.266765 16.253172C961.20942 428.551682 959.129039 458.617441 938.550351 475.90313z"  horiz-adv-x="1024" />

    
    <glyph glyph-name="yingyong" unicode="&#59001;" d="M488.27336656 171.48776343999998c0-106.91567156-86.6705175-193.58522906-193.58522906-193.58522907S101.10194844 64.57209188000002 101.10194844 171.48776343999998c0 106.91471156 86.67147656 193.58522906 193.58618812 193.58522906L423.74463687 365.07299250000005l64.52872969 0 0-64.52872969L488.27336656 171.48776343999998 488.27336656 171.48776343999998zM531.29347906 171.48776343999998c0-106.91567156 86.6705175-193.58522906 193.58522907-193.58522907s193.58522906 86.66955844 193.58522906 193.58522907c0 106.91471156-86.6705175 193.58522906-193.58522906 193.58522906L595.82220875 365.07299250000005l-64.52872969 0 0-64.52872969L531.29347906 171.48776343999998 531.29347906 171.48776343999998zM488.27336656 601.677375c0 106.91567156-86.6705175 193.58522906-193.58522906 193.58522906S101.10194844 708.59304563 101.10194844 601.677375s86.67147656-193.58522906 193.58618812-193.58522906L423.74463687 408.09214594l64.52872969 0L488.27336656 472.62087469 488.27336656 601.677375 488.27336656 601.677375zM531.29347906 601.677375L531.29347906 601.677375c0 106.91567156 86.6705175 193.58522906 193.58522907 193.58522906s193.58522906-86.6705175 193.58522906-193.58522906-86.6705175-193.58522906-193.58522906-193.58522906L595.82220875 408.09214594l-64.52872969 0L531.29347906 472.62087469 531.29347906 601.677375 531.29347906 601.677375z"  horiz-adv-x="1024" />

    
    <glyph glyph-name="zuzhi" unicode="&#58895;" d="M703.03288889 604.5013333300001h218.45333333c15.13244445 0 27.30666667 12.17422222 27.30666667 27.30666667s-12.17422222 27.30666667-27.30666667 27.30666667h-218.45333333c-15.13244445 0-27.30666667-12.17422222-27.30666667-27.30666667 0-15.01866667 12.17422222-27.30666667 27.30666667-27.30666667z m218.45333333-436.79288888h-163.84c-15.13244445 0-27.30666667-12.17422222-27.30666667-27.30666667s12.17422222-27.30666667 27.30666667-27.30666667h163.84c15.13244445 0 27.30666667 12.17422222 27.30666667 27.30666667s-12.288 27.30666667-27.30666667 27.30666667z m0 327.56622222h-218.45333333c-15.13244445 0-27.30666667-12.17422222-27.30666667-27.30666667s12.17422222-27.30666667 27.30666667-27.30666667h218.45333333c15.13244445 0 27.30666667 12.17422222 27.30666667 27.30666667s-12.288 27.30666667-27.30666667 27.30666667z m0-163.72622222h-163.84c-15.13244445 0-27.30666667-12.17422222-27.30666667-27.30666667s12.17422222-27.30666667 27.30666667-27.30666667h163.84c15.13244445 0 27.30666667 12.17422222 27.30666667 27.30666667 0 15.01866667-12.288 27.30666667-27.30666667 27.30666667z m-308.45155555 18.54577777C558.08 272.49777778 472.29155555 222.32177778000005 375.46666667 222.32177778000005S192.73955555 272.49777778 137.78488889 350.09422222C99.78311111 320.28444445 75.09333333 274.432 75.09333333 222.32177778000005v-109.22666667c0-90.45333333 73.38666667-163.84 163.84-163.84h272.95288889c90.45333333 0 163.84 73.38666667 163.84 163.84v109.22666667c0 52.11022222-24.68977778 97.96266667-62.69155555 127.77244444zM375.46666667 276.93511111c135.73688889 0 245.76 122.19733333 245.76 272.95288889s-110.02311111 272.95288889-245.76 272.95288889-245.76-122.19733333-245.76-272.95288889 110.02311111-272.95288889 245.76-272.95288889z"  horiz-adv-x="1024" />

    
    <glyph glyph-name="tuichu" unicode="&#59336;" d="M512 388.33125a28.125 28.125 0 0 0-28.125 28.125V805.875a28.125 28.125 0 0 0 56.25 0v-389.41875a28.125 28.125 0 0 0-28.125-28.125zM512-66C275.46875-66 83.0375 126.43124999999998 83.0375 362.9625c0 145.6875 74.025 280.29375 198.05625 360a28.125 28.125 0 1 0 30.43125-47.30625c-107.8875-69.3-172.2375-186.1875-172.2375-312.69375A373.1625 373.1625 0 0 1 512-9.75a373.1625 373.1625 0 0 1 372.7125 372.7125c0 126.45-64.40625 243.3375-172.2375 312.69375a28.125 28.125 0 1 0 30.43125 47.30625c123.975-79.70625 198.05625-214.3125 198.05625-360C940.9625 126.43124999999998 748.53125-66 512-66z"  horiz-adv-x="1024" />

    
    <glyph glyph-name="zuoji" unicode="&#59011;" d="M672.00000031 490.66666688c12.79999969-14.93333344 25.60000031-29.86666687 38.4-42.66666657 10.66666687-12.79999969 23.46666656-27.73333313 38.4-44.80000031s27.73333313-31.99999969 42.66666656-49.06666687c19.2-21.33333375 34.13333344-40.53333375 46.93333313-57.6 12.79999969-17.06666625 21.33333375-31.99999969 29.86666687-46.93333313 6.40000031-14.93333344 12.79999969-27.73333313 14.93333344-38.4 2.13333375-12.79999969 4.26666656-23.46666656 4.26666656-36.26666625v-55.46666719c0-17.06666625-2.13333375-31.99999969-8.53333312-46.93333312-6.40000031-12.79999969-12.79999969-25.60000031-23.4666675-36.26666719-10.66666687-10.66666687-21.33333375-17.06666625-34.1333325-23.46666656-12.79999969-6.40000031-25.60000031-8.53333312-40.53333375-8.53333313H251.73333313c-14.93333344 0-29.86666687 2.13333375-44.79999938 8.53333313-14.93333344 4.26666656-25.60000031 12.79999969-36.26666719 21.33333375s-19.2 21.33333375-25.60000031 34.13333344c-6.40000031 12.79999969-10.66666687 27.73333313-10.66666594 44.79999937v66.13333406c0 12.79999969 2.13333375 27.73333313 4.26666656 38.4 2.13333375 12.79999969 6.40000031 25.60000031 14.93333344 38.4 6.40000031 17.06666625 14.93333344 29.86666687 27.73333313 46.93333313 12.79999969 14.93333344 27.73333313 31.99999969 44.80000031 51.19999969 14.93333344 17.06666625 29.86666687 31.99999969 46.93333313 49.06666687 14.93333344 17.06666625 29.86666687 31.99999969 42.66666656 44.80000031 14.93333344 14.93333344 29.86666687 29.86666687 42.66666656 44.79999938H672.00000031z m-160.00000031-324.26666719c14.93333344 0 29.86666687 2.13333375 42.66666656 8.53333406 12.79999969 6.40000031 25.60000031 12.79999969 34.13333344 23.46666656 10.66666687 10.66666687 17.06666625 21.33333375 23.46666656 34.13333344 6.40000031 12.79999969 8.53333312 27.73333313 8.53333313 42.66666656s-2.13333375 29.86666687-8.53333313 42.66666656c-6.40000031 12.79999969-12.79999969 25.60000031-23.46666656 34.13333344-10.66666687 10.66666687-21.33333375 17.06666625-34.13333344 23.46666656-12.79999969 6.40000031-27.73333313 8.53333312-42.66666656 8.53333313s-29.86666687-2.13333375-42.66666656-8.53333313c-12.79999969-6.40000031-25.60000031-12.79999969-34.13333344-23.46666656-10.66666687-10.66666687-17.06666625-21.33333375-23.46666656-34.13333344-6.40000031-12.79999969-8.53333312-27.73333313-8.53333313-42.66666656s2.13333375-29.86666687 8.53333313-42.66666656c6.40000031-12.79999969 12.79999969-25.60000031 23.46666656-34.13333344 10.66666687-10.66666687 21.33333375-17.06666625 34.13333344-23.46666656 12.79999969-6.40000031 27.73333313-8.53333312 42.66666656-8.53333406z m428.80000031 428.80000031v-53.33333344c0-14.93333344-4.26666656-27.73333313-14.93333343-38.4-10.66666687-10.66666687-23.46666656-14.93333344-38.4-14.93333344h-106.66666688c-14.93333344 0-27.73333313 4.26666656-38.4 14.93333344-10.66666687 10.66666687-14.93333344 23.46666656-14.93333344 38.4v53.33333344H296.53333344v-53.33333344c0-14.93333344-4.26666656-27.73333313-14.93333344-38.4-10.66666687-10.66666687-23.46666656-14.93333344-38.4-14.93333344h-106.66666688c-14.93333344 0-27.73333313 4.26666656-38.4 14.93333344-10.66666687 10.66666687-14.93333344 23.46666656-14.93333343 38.4v55.46666719c0 6.40000031 2.13333375 12.79999969 4.26666656 17.06666625l12.80000062 12.79999969c4.26666656 4.26666656 10.66666687 8.53333312 17.06666625 10.66666687 6.40000031 2.13333375 12.79999969 6.40000031 19.2 10.66666688 6.40000031 4.26666656 21.33333375 10.66666687 42.66666657 23.46666656 21.33333375 10.66666687 49.06666688 23.46666656 83.20000031 36.26666625 34.13333344 12.79999969 70.39999969 23.46666656 113.06666625 34.13333344s87.46666687 14.93333344 136.53333375 14.93333343c55.46666625 0 104.53333312-4.26666656 147.19999969-14.93333343 42.66666656-10.66666687 81.06666656-21.33333375 113.06666719-34.13333344 31.99999969-12.79999969 57.6-25.60000031 76.79999999-36.26666625 19.2-10.66666687 31.99999969-19.2 38.4-23.46666656 6.40000031-4.26666656 12.79999969-8.53333312 19.2-10.66666688 6.40000031-2.13333375 12.79999969-6.40000031 17.06666625-10.66666687l12.80000063-12.79999969c2.13333375-4.26666656 4.26666656-10.66666687 4.26666656-19.2z m0 0"  horiz-adv-x="1024" />

    
    <glyph glyph-name="yonghuming" unicode="&#59007;" d="M811.136 532.4159999999999c0 165.312-132.288 297.6-297.6 297.6s-297.6-132.288-297.6-297.6c0-112.32 59.52-208.32 152.064-257.856-125.376-49.728-221.376-158.784-247.68-297.6-3.264-16.512 6.528-36.288 26.496-39.744h6.528c16.512 0 29.76 9.984 33.024 26.496 29.76 155.328 165.312 267.84 323.904 271.104h6.528c162.048 0 294.336 132.288 294.336 297.6z m-528.96 0c0 128.832 102.528 231.36 231.36 231.36s231.36-102.528 231.36-231.36c0-125.568-102.528-228.096-228.096-231.36h-9.984c-125.376 3.264-224.64 105.6-224.64 231.36z m449.664-300.864c-16.512 9.984-36.288 6.528-46.272-9.984-9.984-16.512-6.528-36.288 9.984-46.272 76.032-52.8 128.832-125.568 145.536-211.584 3.264-16.512 16.512-26.496 33.024-26.496h6.528c16.512 3.264 29.76 19.776 26.496 39.744-19.968 102.528-82.752 191.808-175.296 254.592z m0 0"  horiz-adv-x="1024" />

    
    <glyph glyph-name="yingyong1" unicode="&#58886;" d="M932.9375 703.125C932.9375 757.78125 888.59375 802.125 833.9375 802.125H654.125C599.46875 802.125 555.125 757.78125 555.125 703.125v-179.8125c0-54.65625 44.34375-99 99-99h179.8125c54.65625 0 99 44.34375 99 99V703.125z m-60-185.53125c0-18.1875-30-33.28125-48.28125-33.28125H648.875c-18.1875 0-32.8125 15-32.8125 33.28125V708.46875c0 18.1875 14.625 32.71875 32.8125 32.71875h190.875c18.1875 0 33.09375-14.53125 33.09375-32.71875v-190.875zM932.9375 249.375c0 54.65625-44.34375 99-99 99H654.125C599.46875 348.375 555.125 304.03125 555.125 249.375v-179.8125c0-54.65625 44.34375-99 99-99h179.8125c54.65625 0 99 44.34375 99 99V249.375z m-60-184.875c0-18.1875-14.8125-33-33-33H649.0625c-18.1875 0-33 14.8125-33 33V255.375c0 18.1875 14.8125 33 33 33h190.875c18.1875 0 33-14.8125 33-33v-190.875zM465.125 249.375c0 54.65625-44.34375 99-99 99H186.3125C131.65625 348.375 87.3125 304.03125 87.3125 249.375v-179.8125C87.3125 14.90625 131.65625-29.4375 186.3125-29.4375h179.8125c54.65625 0 99 44.34375 99 99V249.375z m-60.9375-184.875c0-18.1875-14.8125-33-33-33H180.3125c-18.1875 0-33 14.8125-33 33V255.375c0 18.1875 14.8125 33 33 33h190.875c18.1875 0 33-14.8125 33-33v-190.875zM465.125 703.125C465.125 757.78125 420.78125 802.125 366.125 802.125H186.3125C131.65625 802.125 87.3125 757.78125 87.3125 703.125v-179.8125C87.3125 468.65625 131.65625 424.3125 186.3125 424.3125h179.8125c54.65625 0 99 44.34375 99 99V703.125z m-60.9375-185.8125c0-18.1875-14.8125-33-33-33H180.3125c-18.1875 0-33 14.8125-33 33V708.1875c0 18.1875 14.8125 33 33 33h190.875c18.1875 0 33-14.8125 33-33v-190.875z"  horiz-adv-x="1024" />

    
    <glyph glyph-name="my" unicode="&#59006;" d="M512 257.4375C360.546875 257.4375 237.78125 380.203125 237.78125 531.65625S360.546875 805.875 512 805.875s274.21875-122.765625 274.21875-274.21875-122.765625-274.21875-274.21875-274.21875zM174.5 88.6875a126.5625 126.5625 0 0 0 126.5625 126.5625h421.875a126.5625 126.5625 0 0 0 0-253.125H301.0625c-69.9046875 0-126.5625 56.80546875-126.5625 126.5625z"  horiz-adv-x="1024" />

    
    <glyph glyph-name="tongxunlu" unicode="&#59358;" d="M445.80363594 358.84363594A141.40363594 141.40363594 0 0 0 402.90909125 460.36363594c0 78.19636406 63.62181844 141.81818156 141.81818156 141.8181825s141.81818156-63.62181844 141.81818157-141.8181825a141.40363594 141.40363594 0 0 0-42.89454563-101.52C708.14545438 323.65090875 752 255.20727280999995 752 176.72727281000004a32.72727281 32.72727281 0 0 0-65.45454562 0c0 78.19636406-63.62181844 141.81818156-141.81818157 141.81818157a141.99272719 141.99272719 0 0 1-141.81818156-141.81818157 32.72727281 32.72727281 0 0 0-65.45454562 0c0 78.48 43.85454563 146.92363594 108.34909031 182.11636313zM239.27272719 340.36363594h-130.90909125a32.72727281 32.72727281 0 0 0 0 65.45454562h130.90909125a32.72727281 32.72727281 0 0 0 0-65.45454562z m0 141.8181825h-130.90909125a32.72727281 32.72727281 0 0 0 0 65.45454562h130.90909125a32.72727281 32.72727281 0 0 0 0-65.45454562z m0-283.63636406h-130.90909125a32.72727281 32.72727281 0 0 0 0 65.45454562h130.90909125a32.72727281 32.72727281 0 0 0 0-65.45454562zM832.07272719-74.18181844000003H257.38181844A116.42181844 116.42181844 0 0 0 141.09090875 42.109091250000006V122.18181844000003a32.72727281 32.72727281 0 0 0 65.45454562 0v-80.07272719A50.88 50.88 0 0 1 257.38181844-8.727272810000045h574.69090875A50.88 50.88 0 0 1 882.90909125 42.109091250000006V704.07272719A50.88 50.88 0 0 1 832.07272719 754.90909125H257.38181844A50.88 50.88 0 0 1 206.54545438 704.07272719V624a32.72727281 32.72727281 0 0 0-65.45454563 0V704.07272719A116.42181844 116.42181844 0 0 0 257.38181844 820.36363594h574.69090875A116.42181844 116.42181844 0 0 0 948.36363594 704.07272719v-661.96363594A116.42181844 116.42181844 0 0 0 832.07272719-74.18181844000003zM544.72727281 536.7272728099999c-42.10909125 0-76.36363594-34.25454562-76.36363687-76.36363687s34.25454562-76.36363594 76.36363687-76.36363594 76.36363594 34.25454562 76.36363594 76.36363594-34.25454562 76.36363594-76.36363594 76.36363687z"  horiz-adv-x="1024" />

    
    <glyph glyph-name="daiban" unicode="&#58960;" d="M575.28125001 104.5078125c-11.86523438 38.23242188-11.86523438 76.46484375 0 113.37890625 15.8203125 48.77929689 44.82421875 85.69335938 89.64843749 109.42382813 67.23632813 34.27734375 131.8359375 26.3671875 193.79882813-15.82031251V318.08203125 684.5859375c0 9.22851563-2.63671875 19.77539063-3.95507813 29.00390625-6.59179689 23.73046875-19.77539063 42.1875-38.23242188 56.68945312-18.45703125 14.50195313-39.55078125 22.41210938-63.28125 22.41210938H258.875c-10.546875 0-22.41210938 0-32.95898438-1.31835937-13.18359375 0-25.04882813-5.2734375-36.9140625-10.546875-14.50195313-7.91015625-26.3671875-17.13867188-36.9140625-30.32226563-13.18359375-19.77539063-22.41210938-40.86914063-22.41210937-65.91796875v-597.21679688c0-3.95507813 0-7.91015625 1.31835937-11.86523437 1.31835938-17.13867188 6.59179689-31.640625 14.50195313-46.14257813 10.546875-18.45703125 26.3671875-32.95898438 46.14257813-42.1875 15.8203125-7.91015625 34.27734375-11.86523438 51.41601562-11.86523437h502.29492188c-38.23242188 1.31835938-73.828125 13.18359375-105.46875001 36.9140625-31.640625 23.73046875-52.734375 54.05273438-64.59960938 92.28515625zM260.19335937 616.03125001c2.63671875 5.2734375 7.91015625 9.22851563 14.50195313 9.22851562h436.37695313c10.546875 0 17.13867188-7.91015625 18.45703124-15.82031251 1.31835938-9.22851563-5.2734375-19.77539063-15.8203125-19.77539062-3.95507813 0-6.59179689-1.31835938-10.546875-1.31835939H278.65039062c-7.91015625 0-15.8203125 1.31835938-19.77539062 9.22851564-2.63671875 6.59179689-2.63671875 11.86523438 1.31835938 18.45703124z m10.54687501-139.74609376c2.63671875 0 3.95507813 1.31835938 6.59179687 1.31835938h433.74023438c11.86523438 0 19.77539063-7.91015625 19.77539062-18.45703126 0-10.546875-7.91015625-18.45703125-18.45703125-18.45703124H274.6953125c-10.546875 0-15.8203125 7.91015625-17.13867188 17.13867187-1.31835938 7.91015625 5.2734375 17.13867188 13.18359376 18.45703125z m185.88867187-333.54492188H276.01367187c-10.546875 0-18.45703125 7.91015625-18.45703124 18.45703126 0 10.546875 7.91015625 18.45703125 18.45703125 18.45703124h180.61523437c9.22851563 0 18.45703125-7.91015625 18.45703125-18.45703124 0-9.22851563-7.91015625-18.45703125-18.45703125-18.45703125zM493.54296875 291.71484375H274.6953125c-10.546875 0-18.45703125 9.22851563-18.45703125 18.45703125 0 10.546875 7.91015625 18.45703125 18.45703125 18.45703125h217.52929688c11.86523438 0 18.45703125-7.91015625 18.45703124-18.45703125 1.31835938-10.546875-6.59179689-18.45703125-17.13867187-18.45703125zM894.32421875 161.19726562000005c0 83.05664063-64.59960938 146.33789063-139.74609375 148.97460938-87.01171875 2.63671875-148.97460938-67.23632813-151.61132813-142.3828125-2.63671875-88.33007813 65.91796875-151.61132813 139.74609376-154.24804688C828.40625001 10.904296870000053 894.32421875 80.77734375 894.32421875 161.19726562000005z m-68.5546875-35.59570312H747.98632813c-10.546875 0-17.13867188 7.91015625-17.13867188 18.45703125v110.7421875c0 10.546875 6.59179689 18.45703125 17.13867187 18.45703125s18.45703125-6.59179689 18.45703125-18.45703125v-92.28515625H820.49609375c9.22851563 0 17.13867188-6.59179689 18.45703125-14.50195313 2.63671875-10.546875-3.95507813-19.77539063-13.18359375-22.41210937z"  horiz-adv-x="1024" />

    
    <glyph glyph-name="cuowu" unicode="&#59005;" d="M875.98112773 713.36453819L182.63546181 20.018872269999974c-8.98003579-8.98003579-23.75364304-8.98003579-32.80609847 0l-1.88291073 1.88291071c-8.98003579 8.98003579-8.98003579 23.75364304 0 32.80609847L841.36453819 747.98112773c8.98003579 8.98003579 23.75364304 8.98003579 32.80609847 0l1.88291073-1.88291071c8.98003579-8.98003579 8.98003579-23.75364304-0.07241966-32.73367883zM182.63546181 747.98112773l693.34566592-693.34566592c8.98003579-8.98003579 8.98003579-23.75364304 0-32.80609847l-1.88291071-1.88291073c-8.98003579-8.98003579-23.75364304-8.98003579-32.80609847 0L148.01887227 713.36453819C138.96641683 722.34457398 138.96641683 737.11818123 148.01887227 746.09821702L149.90178298 747.98112773c8.98003579 9.05245543 23.75364304 9.05245543 32.73367883 0z"  horiz-adv-x="1024" />

    
    <glyph glyph-name="shouji" unicode="&#58887;" d="M701.44 757.76c16.896 0 30.72-13.824 30.72-30.72v-686.08c0-16.896-13.824-30.72-30.72-30.72H322.56c-16.896 0-30.72 13.824-30.72 30.72V727.04c0 16.896 13.824 30.72 30.72 30.72h378.88m0 61.44H322.56c-50.688 0-92.16-41.472-92.16-92.16v-686.08c0-50.688 41.472-92.16 92.16-92.16h378.88c50.688 0 92.16 41.472 92.16 92.16V727.04c0 50.688-41.472 92.16-92.16 92.16zM734.72 139.77599999999995h-445.44c-32.256 0-58.88-26.112-58.88-58.88v-44.544c0-32.256 26.112-58.88 58.88-58.88h445.44c32.256 0 58.88 26.112 58.88 58.88v44.544c0 32.768-26.624 58.88-58.88 58.88z m-223.744-120.32c-25.6 0-46.592 20.992-46.592 46.592s20.992 46.592 46.592 46.592 46.592-20.992 46.592-46.592-20.992-46.592-46.592-46.592z"  horiz-adv-x="1024" />

    
    <glyph glyph-name="guanyuwomen" unicode="&#59010;" d="M523.05224609-23.36865234000004c224.21074219 0 404.21074219 181.57939453 404.21074219 405.79013671S747.26298828 786.63134766 523.05224609 786.63134766 117.26298828 606.6313476600001 117.26298828 382.42148437000003s181.57939453-405.79013672 405.78925781-405.79013671z m0-41.05283204c-246.31523437 0-445.26269531 200.52685547-445.26269531 446.84296876S276.73701172 827.68417969 523.05224609 827.68417969s445.26357422-198.94746094 445.26357422-445.26269532-198.94746094-446.84296875-445.26269531-446.84296875z m23.68476563 699.47402344c-14.21103516 0-25.26328125-4.73730469-36.31640625-14.21015625-9.47285156-9.47460938-15.78867187-22.10537109-15.78867188-36.31640625s4.73730469-25.26240234 15.78955079-36.31552734c9.47285156-9.47373047 22.10449219-14.21015625 36.31552734-14.21015625 14.21015625 0 25.26328125 4.73730469 36.31640625 14.21015625 9.47285156 9.47373047 14.21015625 22.10537109 14.21015625 36.31640625 0 14.21015625-4.73730469 25.26240234-14.21103516 36.31552734-11.05224609 9.47373047-22.10449219 14.21015625-36.31640625 14.21015625z m-3.15791016-451.57851562c-4.73730469 4.73730469-6.31582031 14.21015625-6.31582031 26.84179687 0 4.73730469 0 12.63164063 1.57851562 22.10449219 1.57939453 9.47460938 3.15791016 18.94833984 4.73730469 26.84267578l18.94746094 97.89521485c1.57851563 9.47373047 3.15791016 18.94746094 3.15791016 29.99970703s1.57851563 18.94746094 1.57851562 22.10449218c0 20.52685547-4.73730469 37.89580078-15.78955078 50.52744141-9.47373047 12.63164063-23.68388672 18.94658203-42.63134766 18.94658203-9.47373047 0-20.52597656-3.15791016-33.15761718-7.89433594-11.053125-4.73730469-23.68476563-11.05224609-36.31640625-18.94746093l-4.73730469-29.99970703c3.15878906 1.57851563 7.89521484 4.73730469 12.63251953 6.31582031 4.73730469 1.57851563 11.05224609 3.15791016 15.78955078 3.15791015 9.47373047 0 17.36806641-3.15791016 20.52597656-7.89521484 3.15791016-4.73730469 4.73730469-14.21015625 4.73730469-26.84179687 0-6.31582031 0-14.21015625-1.57939453-22.10449219-1.57851563-7.89521484-3.15791016-17.36894531-4.73730469-26.84267578l-17.3671875-97.89521485c-1.57939453-11.05224609-3.15878906-18.94746094-3.15878906-26.84179687-1.57851563-7.89521484-1.57851563-15.78955078-1.57851562-23.68388672 0-20.52685547 4.73730469-36.31640625 15.78955078-50.5265625 11.05224609-12.63164063 25.26328125-18.94746094 44.20986328-18.94746094 12.63164063 0 22.10537109 1.57851563 31.57910156 6.31582031 9.47460938 4.73730469 22.10537109 11.05224609 36.31640625 20.52597657l4.73730469 30.00058593-12.63251953-6.31582031c-6.31582031-1.57939453-11.05224609-3.15791016-15.78955078-3.15791015-9.47373047-1.57939453-17.36806641 1.57851563-20.52597657 6.31582031z"  horiz-adv-x="1041" />

    
    <glyph glyph-name="qingchu" unicode="&#58945;" d="M512 820.90666667a436.90666667 436.90666667 0 1 1 436.90666667-436.90666667 436.90666667 436.90666667 0 0 1-436.90666667 436.90666667z m193.3312-552.68693334a54.61333333 54.61333333 0 0 0-77.55093333-77.55093333L512 306.99519999999995l-115.78026667-116.3264a54.61333333 54.61333333 0 0 0-77.55093333 77.55093333L434.9952 384 318.6688 499.78026667a54.61333333 54.61333333 0 0 0 77.55093333 77.55093333L512 461.0048l115.78026667 116.3264a54.61333333 54.61333333 0 0 0 77.55093333-77.55093333L589.0048 384z"  horiz-adv-x="1024" />

    
    <glyph glyph-name="wode" unicode="&#58918;" d="M512 318.54545438c-144.58909125 0-261.81818156 117.22909125-261.81818156 261.81818156S367.41090875 842.18181844 512 842.18181844s261.81818156-117.22909125 261.81818156-261.8181825-117.22909125-261.81818156-261.81818156-261.81818156z m0 65.45454562a196.36363594 196.36363594 0 1 1 0 392.72727281 196.36363594 196.36363594 0 0 1 0-392.72727281zM959.27272719-41.454545619999976a32.72727281 32.72727281 0 0 0-65.45454563-1e-8C893.81818156 156.96000000000004 723.26545437 318.54545438 512 318.54545438S130.18181844 156.96000000000004 130.18181844-41.454545619999976a32.72727281 32.72727281 0 0 0-65.45454563-1e-8C64.72727281 193.91999999999996 265.36727281 384 512 384s447.27272719-190.08 447.27272719-425.45454562z"  horiz-adv-x="1024" />

    
    <glyph glyph-name="xitongshezhi" unicode="&#58949;" d="M882.5890625 516.35273438H829.66484375a343.74902343 343.74902343 0 0 1-44.17558594 76.6415039l26.42519532 45.77080078c21.92783203 37.98017578 8.91474609 86.54853516-29.06455079 108.478125L691.15273437 800.18232422c-37.98369141 21.93046875-86.55029297 8.91650391-108.48164062-29.06630859l-26.42431641-45.76992188a343.78154297 343.78154297 0 0 1-88.45839843-0.06328125l-26.46123047 45.83320313c-21.92695313 37.9828125-70.49794922 50.99677734-108.4772461 29.06630859L241.15273438 747.2422851599999c-37.98369141-21.92958983-50.99677734-70.49794922-29.06982421-108.478125l26.45244139-45.81650391a347.35253906 347.35253906 0 0 1-24.55136719-36.88945314 347.34814453 347.34814453 0 0 1-19.67080078-39.70634764H141.41357422C97.55439453 516.35273438 62.00175781 480.80097655 62.00175781 436.94091797v-105.88095703c0-43.85654297 35.55263673-79.41181641 79.41181641-79.41181641h52.92246094a343.75253906 343.75253906 0 0 1 44.17382813-76.63798828l-26.42607423-45.77080078c-21.92695313-37.9828125-8.91386719-86.55117188 29.06982422-108.47900391l91.69716797-52.94267578c37.97929687-21.92695313 86.55029297-8.91386719 108.47724609 29.06718749l26.42519532 45.76992189a343.77539063 343.77539063 0 0 1 88.45751953 0.06240234l26.46123047-45.83232421c21.93134766-37.98105469 70.49794922-50.99501953 108.48164062-29.06718751l91.69716797 52.94267578c37.97929687 21.92783203 50.99326172 70.49619141 29.06455078 108.47900391l-26.4515625 45.81474609c8.84794922 11.60947266 17.05869141 23.91152345 24.5513672 36.88857422s14.04052734 26.23886719 19.67080077 39.70634765h52.90400391c43.85390625 0 79.41181641 35.55439453 79.4118164 79.41181641V436.94091797c-0.00087891 43.86005859-35.55791015 79.41181641-79.41269531 79.41181641z m26.47089844-158.82275391c0-29.23769531-23.70322266-52.94003906-52.94003907-52.94003906h-63.92109375c-6.43447266-22.64238281-15.72978516-44.86552734-28.03447265-66.178125-12.30380859-21.31171875-26.90419922-40.46748047-43.29404297-57.3609375l31.96142578-55.35878906c14.61708983-25.32041017 5.94404297-57.69931641-19.37988281-72.31816407l-45.84638672-26.47089844c-25.32392578-14.61796875-57.69931641-5.94228516-72.32080078 19.378125l-31.99921875 55.42558594c-46.15048828-11.65869141-95.16708985-12.07353516-142.61132813-0.06943359l-31.95966797-55.35527344c-14.62148437-25.32041017-46.99775391-33.99609375-72.32080078-19.378125l-45.84638672 26.47089844c-25.32392578 14.61884766-33.99697266 46.99863281-19.37988281 72.31816406l31.95351563 55.34560547c-34.12705078 35.08505859-58.26445313 77.75419922-71.24414063 123.55224609h-63.99316406c-29.24208983 0-52.94091797 23.70322266-52.94091797 52.94003906V410.47265625c0 29.23945312 23.69882812 52.94003906 52.94091797 52.94003906h63.91582031c6.43447266 22.64150391 15.72978516 44.86464844 28.03447266 66.1772461 12.30380859 21.31171875 26.90419922 40.46748047 43.29404297 57.3609375l-31.96142578 55.35878906c-14.61708983 25.32392578-5.94404297 57.70019531 19.37988281 72.31816406l45.84638672 26.47177735c25.32392578 14.62060547 57.69931641 5.94492187 72.32080078-19.378125l32.00009765-55.42558594c46.14960937 11.65869141 95.16796875 12.07441406 142.61132813 0.07119139l31.95878906 55.35439455c14.62148437 25.32304687 46.99775391 33.99873047 72.32080079 19.378125l45.84638672-26.47177735c25.32392578-14.61796875 33.99697266-46.99511719 19.3798828-72.31816406l-31.95263671-55.34384766c34.12705078-35.08505859 58.26357422-77.75419922 71.24326171-123.553125h63.9975586c29.23769531 0 52.94003906-23.70146484 52.94003906-52.94003906v-52.94267578zM604.64638672 544.46982422c-88.62363281 51.16904297-201.94980469 20.80283203-253.11533203-67.82255859-51.16904297-88.62363281-20.80195312-201.94892578 67.82080078-253.11533204 88.62363281-51.16640625 201.94980469-20.80283203 253.11533203 67.8225586 51.16992188 88.62363281 20.80195312 201.94892578-67.82080078 253.11533203z m21.97441406-226.64619141c-36.5484375-63.30322266-117.49482422-84.99023438-180.79804687-48.44267578-63.30322266 36.5484375-84.99375001 117.49482422-48.4453125 180.79716797s117.49482422 84.99287109 180.79804687 48.44443359c63.30322266-36.54755859 84.99375001-117.49394531 48.4453125-180.79892578z"  horiz-adv-x="1024" />

    
    <glyph glyph-name="huiyi" unicode="&#58884;" d="M889.44462051 718.29588574h-324.68354461v37.59493743a49.98417682 49.98417682 0 0 1-99.96835447 0v-37.59493743h-324.6835446a49.98417682 49.98417682 0 0 1-1e-8-99.96835446h6.40822851a62.80063303 62.80063303 0 0 1 0-15.37974646v-465.23734195A75.18987323 75.18987323 0 0 1 218.28955713 62.94778482000004h175.15822769l-35.88607589-35.8860759a38.02215179 38.02215179 0 0 1 0-53.82911426 38.87658216 38.87658216 0 0 1 53.82911425 0l89.28797415 89.71519016h25.63291159l89.28797498-89.71519016a38.87658216 38.87658216 0 0 1 53.82911343 0 38.02215179 38.02215179 0 0 1 0 53.82911426l-35.8860759 35.8860759h174.73101252a75.18987323 75.18987323 0 0 1 75.18987406 74.76265805V602.9477848199999a62.80063303 62.80063303 0 0 1 0 15.37974646h6.40822769a49.98417682 49.98417682 0 1 1 0 99.96835446zM283.65348123 565.35284821h469.93670892a27.34177231 27.34177231 0 1 0 0-54.68354462h-469.93670892a27.34177231 27.34177231 0 1 0 0 54.68354461z m231.12341785-148.67088657a27.76898749 27.76898749 0 0 0-27.34177231-27.76898667H285.36234194a27.76898749 27.76898749 0 1 0 0 55.11075898H487.43512678a27.34177231 27.34177231 0 0 0 27.3417723-27.34177231z m-256.32911426-128.16455631a27.34177231 27.34177231 0 0 0 27.34177231 27.34177149h205.49050626a27.34177231 27.34177231 0 0 0 27.34177231-27.34177149 27.34177231 27.34177231 0 0 0-27.34177231-27.3417723H284.93512677a27.34177231 27.34177231 0 0 0-27.3417723 27.76898748z m446.86708841-118.338608a119.19303836 119.19303836 0 1 0 119.19303837 118.76582318 118.33860801 118.33860801 0 0 0-119.19303838-118.76582318zM750.5996839 327.82120267000005L688.22626604 266.30221517999996l-27.76898747 26.91455713a14.95253128 14.95253128 0 0 1-20.93354462-20.93354462l38.87658214-39.30379733a15.37974646 15.37974646 0 0 1 21.36075981 0L773.66930359 306.46044286999995a15.80696164 15.80696164 0 0 1 0 21.3607598 15.37974646 15.37974646 0 0 1-23.06961968 0z"  horiz-adv-x="1031" />

    
    <glyph glyph-name="yingyong2" unicode="&#58885;" d="M369.89155555 735.91466667c14.90488889 0 27.648-5.12 38.22933334-15.47377778 10.58133333-10.24 15.92888889-22.86933333 15.92888889-37.77422222V468.19555555c0-14.90488889-5.34755555-27.648-15.92888889-38.22933333s-23.32444445-15.81511111-38.22933334-15.92888889H155.42044445c-14.90488889 0-27.42044445 5.23377778-37.77422223 15.92888889-10.24 10.58133333-15.47377778 23.32444445-15.47377777 38.22933333V682.66666667c0 14.90488889 5.12 27.42044445 15.47377777 37.77422222 10.24 10.35377778 22.86933333 15.47377778 37.77422223 15.47377778h214.4711111z m0-429.056c14.90488889 0 27.648-5.12 38.22933334-15.47377778 10.58133333-10.24 15.92888889-22.86933333 15.92888889-37.77422222v-215.38133334c0-14.90488889-5.34755555-27.42044445-15.92888889-37.77422222-10.58133333-10.24-23.32444445-15.47377778-38.22933334-15.47377778H155.42044445c-14.90488889 0-27.42044445 5.12-37.77422223 15.47377778-10.24 10.24-15.47377778 22.86933333-15.47377777 37.77422222V253.72444444999996c0 14.90488889 5.12 27.42044445 15.47377777 37.77422222 10.24 10.35377778 22.86933333 15.47377778 37.77422223 15.47377778h214.4711111z m429.85244445 0c14.90488889 0 27.42044445-5.12 37.77422222-15.47377778 10.24-10.24 15.47377778-22.86933333 15.47377778-37.77422222v-215.38133334c0-14.90488889-5.12-27.42044445-15.47377778-37.77422222-10.24-10.24-22.86933333-15.47377778-37.77422222-15.47377778H585.27288889c-14.90488889 0-27.648 5.12-38.22933334 15.47377778-10.58133333 10.24-15.92888889 22.86933333-15.92888888 37.77422222V253.72444444999996c0 14.90488889 5.23377778 27.42044445 15.92888888 37.77422222 10.58133333 10.35377778 23.32444445 15.47377778 38.22933334 15.47377778h214.47111111z m88.97422222 302.19377778c11.49155555-11.49155555 17.18044445-24.91733333 17.18044445-40.27733334 0-15.47377778-5.68888889-28.55822222-17.18044445-39.48088889L729.088 369.664c-11.49155555-11.49155555-24.68977778-17.18044445-39.936-17.18044445s-28.44444445 5.68888889-39.936 17.18044445L489.81333333 529.2942222199999c-10.92266667 10.92266667-16.27022222 24.00711111-16.27022222 39.48088889 0 15.47377778 5.46133333 28.89955555 16.27022222 40.27733334l159.63022222 159.63022222c11.49155555 10.80888889 24.68977778 16.27022222 39.936 16.27022222s28.44444445-5.46133333 39.936-16.27022222l159.40266667-159.63022222z m30.26488889 32.42666666"  horiz-adv-x="1024" />

    
    <glyph glyph-name="mima" unicode="&#59158;" d="M808.60501333 529.93834667H350.72682667V606.0693333300001a159.30709333 159.30709333 0 0 0 318.61418666 0v-3.93216a32.768 32.768 0 1 1 65.536 0V606.0693333300001a224.84309333 224.84309333 0 0 1-449.68618666 0v-76.45866667H211.62666667a98.304 98.304 0 0 1-98.304-98.304v-371.91679999a98.304 98.304 0 0 1 98.304-98.304h596.97834666a98.304 98.304 0 0 1 98.304 98.304V431.63434667a98.304 98.304 0 0 1-98.304 98.304z m32.768-470.54848a32.768 32.768 0 0 0-32.768-32.768H211.62666667a32.768 32.768 0 0 0-32.768 32.768V431.63434667a32.768 32.768 0 0 0 32.768 32.768h596.97834666a32.768 32.768 0 0 0 32.768-32.768zM510.03392 357.79711999999995a32.768 32.768 0 0 1-32.768-32.768v-159.03402668a32.768 32.768 0 0 1 65.536 1e-8v159.03402667a32.768 32.768 0 0 1-32.768 32.768z"  horiz-adv-x="1024" />

    


  </font>
</defs>
</svg>
